<svg xmlns="http://www.w3.org/2000/svg" version="1.1" xmlnsXlink="http://www.w3.org/1999/xlink" width="512" height="512" x="0" y="0" viewBox="0 0 512 512" style="enable-background:new 0 0 512 512" xmlSpace="preserve" class=""><g><g fill-rule="evenodd"><g fill="#d1e7ff"><path d="M256 289.516a33.5 33.5 0 1 1 33.5-33.5 33.535 33.535 0 0 1-33.5 33.5zM427.927 185.6a18.731 18.731 0 1 1-1.869 14.212 18.745 18.745 0 0 1 1.869-14.212zM231.013 440.11a18.717 18.717 0 1 1-16.242-9.359 18.664 18.664 0 0 1 16.242 9.359zM109.061 142.328a18.725 18.725 0 1 1 18.722-18.722 18.748 18.748 0 0 1-18.722 18.722z" fill="#d1e7ff" data-original="#d1e7ff"></path></g><path fill="#2e58ff" d="M430.692 315.937a350.833 350.833 0 0 1-35.463 10.925 551.779 551.779 0 0 0-27.878-70.847 552.19 552.19 0 0 0 27.868-70.822q10.593 2.674 20.473 5.773a28.719 28.719 0 0 0 50.817 22c16.27 9.9 33.492 24.713 33.492 43.053 0 21.751-25.26 43.6-69.309 59.922zm-35.454 61.4c7.883 46.308 1.6 79.111-17.236 89.979-18.84 10.883-50.393-.08-86.55-30.057a347.073 347.073 0 0 1-27.212-25.27 557.295 557.295 0 0 0 47.4-59.539 552.9 552.9 0 0 0 75.318-11.283 346.09 346.09 0 0 1 8.278 36.17zm-162.768 49.5a28.723 28.723 0 0 0-44.459 33.02c-16.7 9.132-38.128 16.627-54.011 7.457-18.84-10.868-25.119-43.671-17.241-89.979a347.7 347.7 0 0 1 8.26-36.1 550.327 550.327 0 0 0 75.323 11.231 552.435 552.435 0 0 0 47.378 59.52q-7.62 7.846-15.25 14.85zm-1.51 26.963a16.736 16.736 0 1 0-7.8 10.161 16.608 16.608 0 0 0 7.8-10.161zM81.31 315.937C37.262 299.611 12 277.766 12 256.015s25.262-43.595 69.31-59.931a350.312 350.312 0 0 1 35.49-10.919 556.16 556.16 0 0 0 27.86 70.789 549.393 549.393 0 0 0-27.96 70.884 350.168 350.168 0 0 1-35.393-10.9zm38.511-165.712a28.719 28.719 0 0 0-6.359-55.006C113.9 76.18 118.122 53.868 134 44.7c18.84-10.873 50.393.08 86.55 30.057a350.681 350.681 0 0 1 27.142 25.2 549.689 549.689 0 0 0-47.379 59.6 549.534 549.534 0 0 0-75.271 11.227q-2.971-10.487-5.221-20.562zm-27.492-26.619a16.727 16.727 0 1 0 16.732-16.727 16.748 16.748 0 0 0-16.732 16.727zm249.148 83.054q10.2 17.668 19.091 35.421a529.431 529.431 0 0 0 22.963-59.671 535.652 535.652 0 0 0-63.129-9.953q10.782 16.394 21.075 34.2zM215.8 158.47q19.608-1.146 40.2-1.16c13.561 0 27.01.4 40.232 1.188A530.422 530.422 0 0 0 256 108.747a528.067 528.067 0 0 0-40.2 49.723zm-64.36 83.55q8.81-17.534 19.081-35.36 10.273-17.809 21.109-34.237a529.328 529.328 0 0 0-63.129 9.949 533.77 533.77 0 0 0 22.939 59.648zm40.213 97.58q-10.911-16.53-21.133-34.23a677.873 677.873 0 0 1-19.081-35.435 529.616 529.616 0 0 0-22.977 59.715 529.041 529.041 0 0 0 63.191 9.948zm104.526 13.944a681.906 681.906 0 0 1-40.18 1.179q-20.562 0-40.2-1.16a528.559 528.559 0 0 0 40.181 49.7 536.438 536.438 0 0 0 40.2-49.718zm64.389-83.6a680.21 680.21 0 0 1-19.091 35.425q-10.167 17.606-21.137 34.237a530.662 530.662 0 0 0 63.2-9.957 529.319 529.319 0 0 0-22.972-59.7zM331.09 299.37c8.331-14.429 16.01-28.939 22.968-43.355-6.958-14.415-14.637-28.925-22.968-43.355s-17.052-28.312-26.043-41.538a657.838 657.838 0 0 0-49.048-1.816c-16.661 0-33.058.608-49.03 1.787-9 13.236-17.727 27.138-26.057 41.567s-16 28.916-22.954 43.322c6.972 14.477 14.652 29 22.954 43.388a664.788 664.788 0 0 0 26.057 41.558c15.972 1.179 32.369 1.793 49.03 1.793s33.043-.6 49-1.783a665.01 665.01 0 0 0 26.09-41.568zM291.452 74.76C327.619 44.783 359.171 33.83 378 44.7s25.119 43.676 17.236 89.988a346.5 346.5 0 0 1-8.278 36.195 556.678 556.678 0 0 0-75.238-11.27 549.932 549.932 0 0 0-47.41-59.649 349.953 349.953 0 0 1 27.142-25.2zM429.659 186.6a16.729 16.729 0 0 0 6.123 22.85 16.723 16.723 0 1 0 16.718-28.97 16.551 16.551 0 0 0-8.33-2.24 16.737 16.737 0 0 0-14.51 8.358zm42.28 15.628a28.727 28.727 0 0 0-52.12-22.538 380.144 380.144 0 0 0-21.189-6 359.042 359.042 0 0 0 8.439-36.978c8.9-52.3.712-88.667-23.067-102.394-30.161-17.406-78.45 6.1-128 56.884-49.549-50.78-97.838-74.29-128-56.884-16.892 9.755-26.02 31-26.548 61.6a28.715 28.715 0 0 0 6.536 56.382q2.315 10.416 5.368 21.284C44.549 191.094 0 221.175 0 256.015c0 34.813 44.511 64.884 113.258 82.4-19.2 68.3-15.42 121.891 14.741 139.3a44.594 44.594 0 0 0 22.609 5.74c12.93 0 27.77-4.552 44-13.552a28.514 28.514 0 0 0 12.76 7.311 28.9 28.9 0 0 0 7.481.991 28.726 28.726 0 0 0 25.341-42.161q7.888-7.231 15.8-15.35a357.767 357.767 0 0 0 27.8 25.8c29.406 24.378 56.1 36.958 77.615 36.958a44.486 44.486 0 0 0 22.6-5.74c23.779-13.732 31.968-50.092 23.067-102.4a361.567 361.567 0 0 0-8.43-36.958 359.962 359.962 0 0 0 36.223-11.17C484.609 308.748 512 283.469 512 256.015c0-19.5-13.831-38.034-40.062-53.789zM256 287.516a31.5 31.5 0 1 1 31.5-31.5 31.533 31.533 0 0 1-31.5 31.5zm0-75a43.5 43.5 0 1 1-43.5 43.5 43.545 43.545 0 0 1 43.5-43.502z" data-original="#2e58ff" class=""></path></g></g></svg>